<?xml version="1.0" encoding="UTF-8"?>
<svg id="Layer_1" xmlns="http://www.w3.org/2000/svg" version="1.1" viewBox="0 0 2085.84 870.96">
  <!-- Generator: Adobe Illustrator 29.6.1, SVG Export Plug-In . SVG Version: 2.1.1 Build 9)  -->
  <defs>
    <style>
      .st0 {
        fill: #fff0f0;
      }

      .st1 {
        fill: #fffcfc;
      }

      .st2 {
        fill: #fefefe;
      }

      .st3 {
        fill: #ff5353;
      }

      .st4 {
        fill: #ff5a5a;
      }

      .st5 {
        fill: #fff2f2;
      }
    </style>
  </defs>
  <g id="cRJLVN.tif">
    <g>
      <path class="st2" d="M-986.8-1106.95c-.81,5.7,7.8,5.7,7,0,3.32,0,6.67,0,10,0,.31,8.42,13.35,4.11,18.49,4.19,10.53.17,21.36,1.49,32.02.84,7.27-1.48,16.62.33,23.95-1.04,2.54-.47,2.65-1.78,2.5-3.99,149.25-.25,298.56.08,447.81,0-.07,7.09,7.91,4.12,11.5,4.18,50.2.8,103.74-1.73,153.06.5,84.98,3.84,174.27-.87,259.71-.72,4.09,0,14.29,3.95,14.55-3.96H.77c-.09,6.88,9.98,5.6,11,0h1c1.01,5.6,11.09,6.88,11,0h49.98c.5,7.62,7.46,5.82,9,0h1c1.11,5.28,8.43,6.04,8,0h19.99c-.81,5.7,7.8,5.7,7,0,69.29,0,138.62-.01,207.91,0-.81,5.7,7.8,5.7,7,0h264.89c-.81,5.7,7.8,5.7,7,0h117.95c-.81,5.7,7.8,5.7,7,0h10c-.43,6.04,6.88,5.28,8,0,.33,0,.67,0,1,0,.45,5.38,12.73,6.4,11.99,0,.67,0,1.33,0,2,0-.43,6.04,6.88,5.28,8,0h1c1.07,2.54,2.31,5.19,5.5,5.07,41.02-2.68,86.27,3.25,126.99-.04,3.07-.25,8.15-.43,7.46-5.02,18.97.07,38.02-.3,56.98,0-.04,7.66,14.2,6.11,16.99,1,6.1.26,18.59-3.24,17.99,4.47,2.23,99.69-2.63,199.6-1.05,299.13.07,4.24,3.19,9.03-2.48,10.39-623.74-.06-1247.47.21-1871.21-.03-135.75-.05-272.96,2.45-408.74-.98-10.16-.26-20.38.27-30.53.05l-1-313.02h250.9s.93,3.54.93,3.54c3.7,1.01,8.74,1.49,8.06-3.54,21.4.02,42.53-.95,63.97-1ZM-1272.68-1099.97h-30.99v301.06h29.99v-297.57c0-.5,1.58-2.09,1-3.49ZM-1237.69-1099.97h-30.99l1,301.06h28.99l1-301.06ZM-1201.71-1099.97h-30.99v301.06h30.99v-301.06ZM-1167.72-1099.97h-28.99l1,301.06h26.99l1-301.06ZM-1130.74-1099.97h-31.99v301.06h31.99v-301.06ZM-1094.75-1099.97h-29.99v301.06h28.99v-298.56c0-.3,1.37-1.42,1-2.49ZM-1058.77-1099.97h-30.99v301.06h30.99v-301.06ZM-1021.79-1099.97h-30.99v301.06h29.99v-297.57c0-.5,1.58-2.09,1-3.49ZM-985.8-1099.97h-30.99v301.06h30.99v-301.06ZM-949.82-1099.97h-29.99v301.06h29.99v-301.06ZM-914.83-1099.97h-29.99l1,301.06h28.99v-301.06ZM-878.85-1099.97h-29.99v301.06h29.99v-301.06ZM-842.86-1099.97h-29.99v301.06h29.99v-301.06ZM-807.88-1099.97h-28.99v301.06h29.99l-1-301.06ZM998.34-798.91v-299.56c-3.35-2.47-10.11-1.65-14.54-1.55-11.21.25-22.63,2.53-33.9,0l-1751.29.04c-1.4.17.5,1.27.5,1.5v299.56H998.34Z"/>
      <path class="st2" d="M-6.22-1106.95c-.26,7.9-10.45,3.96-14.55,3.96-85.44-.15-174.72,4.57-259.71.72-49.32-2.23-102.86.3-153.06-.5-3.59-.06-11.57,2.91-11.5-4.18,146.25-.08,292.56,0,438.81,0Z"/>
      <path class="st2" d="M912.38-1106.95c.69,4.59-4.39,4.78-7.46,5.02-40.72,3.29-85.97-2.64-126.99.04-3.19.12-4.43-2.53-5.5-5.07,46.63.12,93.31-.16,139.94,0Z"/>
      <path class="st2" d="M-892.84-1106.95c.15,2.21.04,3.52-2.5,3.99-7.33,1.37-16.68-.44-23.95,1.04-10.67.65-21.5-.68-32.02-.84-5.14-.08-18.18,4.24-18.49-4.19,25.64-.06,51.33.04,76.97,0Z"/>
      <path class="st2" d="M986.35-1105.95c-2.8,5.11-17.03,6.66-16.99-1,5.73.09,11.65.77,16.99,1Z"/>
      <path class="st2" d="M761.45-1106.95c.74,6.4-11.54,5.38-11.99,0,3.99,0,8.01,0,11.99,0Z"/>
      <path class="st2" d="M11.77-1106.95c-1.01,5.6-11.09,6.88-11,0h11Z"/>
      <path class="st2" d="M23.76-1106.95c.09,6.88-9.98,5.6-11,0h11Z"/>
      <path class="st2" d="M-1050.77-1105.95c.67,5.03-4.37,4.54-8.06,3.54l-.93-3.54h9Z"/>
      <path class="st2" d="M82.74-1106.95c-1.54,5.82-8.5,7.62-9,0h9Z"/>
      <path class="st2" d="M91.73-1106.95c.43,6.04-6.88,5.28-8,0h8Z"/>
      <path class="st2" d="M748.45-1106.95c-1.11,5.28-8.43,6.04-8,0h8Z"/>
      <path class="st2" d="M771.44-1106.95c-1.11,5.28-8.43,6.04-8,0h8Z"/>
      <path class="st2" d="M-979.8-1106.95c.81,5.7-7.8,5.7-7,0,2.33,0,4.67,0,7,0Z"/>
      <path class="st2" d="M118.72-1106.95c.81,5.7-7.8,5.7-7,0h7Z"/>
      <path class="st2" d="M333.63-1106.95c.81,5.7-7.8,5.7-7,0,2.33,0,4.67,0,7,0Z"/>
      <path class="st2" d="M605.51-1106.95c.81,5.7-7.8,5.7-7,0h7Z"/>
      <path class="st2" d="M730.46-1106.95c.81,5.7-7.8,5.7-7,0h7Z"/>
      <path class="st2" d="M-678.16-979.07c50.73-5.71,90.42,38.95,76.68,88.44-14.72,53.03-84.96,67.63-120.41,25.4-34.62-41.24-10-107.79,43.73-113.84ZM-675.14-974.07c-83.79,8.52-71.68,135.73,12.69,128.29,84.11-7.41,73.17-137.02-12.69-128.29Z"/>
      <path class="st2" d="M304.64-944.47c16.81,4.31,17.61,26.66,1.68,33.1-26.69,10.78-47.55-17.84-19.68-32.1-4.9-4.77-10.17-8.05-10.79-15.72-1.95-24.35,45.83-25.77,39.34,1.85-1.42,6.05-6.85,8.68-10.56,12.88ZM294.43-970.14c-19.3,2.05-4.86,26.14,6.17,19.16,11.36-7.19,8.61-20.73-6.17-19.16ZM294.31-940.24c-2.3.18-8.47,5.22-9.69,7.22-10.99,18.05,24.67,22.86,23.96,5.1-.21-5.31-9.61-12.69-14.27-12.32Z"/>
      <path class="st2" d="M500.56-962.41l-7.36.93c-1.98-.64-1.93-8.86-10.12-8.94-11.72-.11-15.25,14.68-15.51,23.96,4.27-.15,7.27-3.3,11.58-3.89,31.39-4.36,29.86,44.91-3.11,40.81-21.83-2.72-19.93-42.46-11.91-56.78,8.79-15.69,34.49-16.15,36.43,3.92ZM480.33-943.27c-2.86.32-10.26,3.86-11.87,6.26-1.02,8.45,1.59,20.85,12.57,20.51,14.8-.46,16.1-28.67-.7-26.77Z"/>
      <path class="st2" d="M103.73-962.41l-7.36.93c-1.98-.64-1.93-8.86-10.12-8.94-11.72-.11-15.25,14.68-15.51,23.96,4.27-.15,7.27-3.3,11.58-3.89,31.39-4.36,29.86,44.91-3.11,40.81-21.83-2.72-19.93-42.46-11.91-56.78,8.79-15.69,34.49-16.15,36.43,3.92ZM83.5-943.27c-2.86.32-10.26,3.86-11.87,6.26-1.02,8.45,1.59,20.85,12.57,20.51,14.8-.46,16.1-28.67-.7-26.77Z"/>
      <path class="st2" d="M-164.16-910.57l-9.85-.13-6.02-18.21-26-.49-5.58,17.86-9.51.98,22.13-65.65,12.37.84,22.47,64.81ZM-203.14-937.48h19.99c-2.73-8.85-5.41-18.08-8.74-26.72-.48-1.25.45-2.64-1.74-2.2l-9.51,28.92Z"/>
      <path class="st2" d="M901.39-976.36v7.98h-24.99l-1.99,18.94c7.06-2.96,12.17-5,19.8-2.3,15.35,5.43,14.4,30.25,2.12,38.63-11.22,7.65-33.38,3.9-32.84-12.32l7.9-2.07c.7,9.24,8,11.64,16.3,9.76,11.2-2.54,13.08-28.88-4.5-27.49-6.84.54-9.74,7.7-16.63,2.63l2.84-33.74h31.99Z"/>
      <path class="st2" d="M423.59-976.36v7.98h-24.99l-1.99,18.94c7.06-2.96,12.17-5,19.8-2.3,15.35,5.43,14.4,30.25,2.12,38.63-11.22,7.65-33.38,3.9-32.84-12.32l7.9-2.07c.7,9.24,8,11.64,16.3,9.76,11.2-2.54,13.08-28.88-4.5-27.49-6.84.54-9.74,7.7-16.63,2.63l2.84-33.74h31.99Z"/>
      <path class="st2" d="M588.52-976.36v41.87l8.01.57v7.41s-8.01,0-8.01,0v15.95h-8v-15.95h-30.99l.78-7.7,26.72-41.14,11.49-1ZM580.52-934.49v-31.9l-20.99,31.9h20.99Z"/>
      <path class="st2" d="M741.46-946.44c2.56,2.9,5.69,2.56,8.53,5.94,5.24,6.25,4.66,17.53-.1,23.89-7.95,10.64-29.82,10.52-35.6-2.24-3.69-8.14.13-6.23,7.16-7.65-.13,13.18,21.14,12.58,22.94,1.44,2.41-14.87-7.44-17.09-19.94-16.39v-6.99c6.95.41,17.89-.93,19.04-9.42,2.23-16.56-18.88-16.2-21.05-2.53l-7.97-2.03c1.61-13.61,15.05-17,27.03-14.49,14.98,3.15,14.83,27.16-.05,30.47Z"/>
      <path class="st2" d="M644.5-910.56c.1-2.67-.5-5.34.54-7.94,2.65-6.64,19.4-21.32,24.27-29.63,4.88-8.31,7.36-22.24-6.32-22.24-7.3,0-10.19,4.36-11.61,10.84l-7.88-.89c.65-21.28,37.2-23.91,39-2.48,1.43,17.11-18.28,31.51-27,44.35h26.49l1.34,1.65.16,6.33h-38.98Z"/>
      <path class="st2" d="M-114.18-910.56c.1-2.67-.5-5.34.54-7.94,2.65-6.64,19.4-21.32,24.27-29.63,4.88-8.31,7.36-22.24-6.32-22.24-7.3,0-10.19,4.36-11.61,10.84l-7.88-.89c.65-21.28,37.2-23.91,39-2.48,1.43,17.11-18.28,31.51-27,44.35h26.49l1.34,1.65.16,6.33h-38.98Z"/>
      <path class="st2" d="M-66.2-910.56c.1-2.67-.5-5.34.54-7.94,2.65-6.64,19.4-21.32,24.27-29.63,4.88-8.31,7.36-22.24-6.32-22.24-7.3,0-10.19,4.36-11.61,10.84l-7.88-.89c.65-21.28,37.2-23.91,39-2.48,1.43,17.11-18.28,31.51-27,44.35h26.49l1.34,1.65.16,6.33h-38.98Z"/>
      <path class="st2" d="M827.42-976.36v65.79h-9v-53.83l-13.99,2.99v-7.98c3.79.24,8.6-.76,12-2.48,4.07-2.06,5.24-5.93,10.99-4.5Z"/>
      <path class="st2" d="M45.75-976.36v65.79h-9v-53.83l-13.99,2.99v-7.98c3.79.24,8.6-.76,12-2.48,4.07-2.06,5.24-5.93,10.99-4.5Z"/>
      <path class="st2" d="M218.68-976.36v65.79h-9v-53.83l-13.99,2.99v-7.98c3.79.24,8.6-.76,12-2.48,4.07-2.06,5.24-5.93,10.99-4.5Z"/>
      <path class="st2" d="M843.65-910.8c-5.55-5.54,3.2-16.62,9.78-9.25s-4.92,14.1-9.78,9.25Z"/>
      <path class="st2" d="M437.82-910.8c-5.55-5.54,3.2-16.62,9.78-9.25,6.73,7.54-4.92,14.1-9.78,9.25Z"/>
      <path class="st2" d="M693.71-910.8c-5.55-5.54,3.2-16.62,9.78-9.25,6.73,7.54-4.92,14.1-9.78,9.25Z"/>
      <path class="st2" d="M-678.2-949.21c31.41-5.25,54.27,17.55,49.01,48.88-5.41,32.18-52.41,40.67-72.16,13.62-15.59-21.34-3.59-58.03,23.16-62.5Z"/>
    </g>
  </g>
  <g id="_x37_hGjWh.tif">
    <g>
      <polygon class="st2" points="-306.68 -1541.58 -306.68 -1715.69 -232.72 -1715.69 -232.66 -1543.14 -236.72 -1541.58 -238.72 -1541.58 -302.68 -1541.58 -306.68 -1541.58"/>
      <path class="st2" d="M-1108.26-1735.58v141.28c-3.81,1.16-3.64-1.32-4.74-1.95-31.86-18.32-62.65-40.97-93.9-60.54-3.21-2.01-6.55-4.24-10.3-5.16v-5.97c3.41-.05,6.5-2.45,9.31-4.16,30.39-18.56,63.55-39.64,92.78-59.87,1.44-.99,2.97-1.45,2.86-3.62h4Z"/>
      <path class="st2" d="M680.8-1662.96c-25.67,15.45-51,31.75-76.27,47.94-9.67,6.2-18.94,13.02-28.93,18.75-1.1.63-.93,3.11-4.74,1.95v-139.28c6.3.11,11.68,4.42,16.85,7.6,30.51,18.76,60.17,39.08,90.7,57.89,1.72,1.06,1.48,1.57,2.4,3.16v1.99Z"/>
      <path class="st2" d="M574.85-1735.58c-1,1.2-2,1.2-3,0h3Z"/>
      <rect class="st2" x="-607.52" y="-1715.69" width="74.96" height="102.47"/>
      <rect class="st2" x="290" y="-1715.69" width="74.96" height="102.47"/>
      <rect class="st2" x="-1059.29" y="-1715.69" width="73.96" height="102.47"/>
      <rect class="st2" x="-910.36" y="-1715.69" width="73.96" height="102.47"/>
      <rect class="st2" x="-755.45" y="-1715.69" width="73.96" height="102.47"/>
      <rect class="st2" x="-458.6" y="-1715.69" width="73.96" height="102.47"/>
      <rect class="st2" x="-161.76" y="-1715.69" width="73.96" height="102.47"/>
      <rect class="st2" x="-12.84" y="-1715.69" width="73.96" height="102.47"/>
      <rect class="st2" x="142.08" y="-1715.69" width="73.96" height="102.47"/>
      <rect class="st2" x="438.93" y="-1715.69" width="73.96" height="102.47"/>
    </g>
  </g>
  <g id="bKtIPt.tif">
    <g>
      <path class="st1" d="M4371.41-1195.34v37.98c-15.01,113.28-103.61,202.27-196.11,260.68-203.88,128.76-518.75,175.55-746.09,88.62-234.43-89.65-285.14-297.47-93.5-470.26,192.17-173.26,547.47-236.34,791.79-159.9,113.04,35.37,233.52,113.64,243.9,242.88ZM3871.16-1448.6c-177.1,5.81-387.79,66.45-521.45,186.28-152.2,136.45-151.81,313.34,37.98,411.83,235.82,122.38,618.73,62.35,824.69-99.07,113.85-89.23,197.45-233.57,85-362.65-94.29-108.24-289.5-140.88-426.22-136.39Z"/>
      <path class="st0" d="M2146.13-2514.58c3.95,3.62,12.36,1.96,17.99,2,149.41.97,325.64,72.1,444.49,160.27,433.07,321.29,426.61,951.51-14,1262.55-477.61,337.16-1166.11,91.77-1289.59-482.98l-16.62-118.31c1.03-22.98-1.39-47.12,0-69.96,24.95-409.58,358.81-728.55,765.75-751.57,4.34-.25,8.76.33,13.13.08l4.87-2.08h73.98ZM2065.74-2508c-629.41,30.37-1005.19,739.16-606.18,1252.49,383.61,493.53,1199.7,382.65,1416.37-208.64,199.95-545.67-251.16-1070.82-810.18-1043.85Z"/>
      <path class="st3" d="M2072.15-2514.58l-4.87,2.08c-4.37.25-8.78-.33-13.13-.08v-2h17.99Z"/>
      <path class="st4" d="M2164.12-2514.58v2c-5.64-.04-14.05,1.62-17.99-2h17.99Z"/>
      <path class="st5" d="M3787.19-2512c134.93-6.54,287.38,11.84,404.9,81.75,149.93,89.19,196.54,239.73,82.15,383.19-196.12,245.96-726.82,318.04-979.11,131.77-117.14-86.49-150.04-212.22-66.61-337.71,109.68-164.95,368.86-249.8,558.67-259ZM3797.18-2506c-155.88,7.01-333.43,56.72-459.27,150.5-204.88,152.68-202.52,370.28,39.1,480.27,243.02,110.63,625.5,59.39,830.48-112.62,163.58-137.26,171.91-327.15-22.68-439.13-112.7-64.86-258.84-84.82-387.63-79.02Z"/>
    </g>
  </g>
  <g id="_x38_dCO5A.tif">
    <g>
      <path class="st2" d="M3407.91-3574.72l.07,403.73-1.98,116.86c-1.84,2.17-4.08,1.75-5.58-.59l-.5-520h8Z"/>
      <path class="st2" d="M2450.41-3495.87h39.98c0,2.37.37,4.64-.54,6.95-2.33,5.85-18.85,21.7-23.67,29.26-3.46,5.42-8.99,16.04-3.34,21.75,3.55,3.58,12.31,3.42,16.09-.03,4.39-4.01.89-12.22,11.54-6.39-1.87,20.98-37.83,23.41-39.08.83-.95-17.35,18.14-31.34,27-44.37l-27.99-1.01v-6.99Z"/>
      <path class="st2" d="M2915.17-3050.72h-7v-114.78l-428.78-217.57,15.72-.24c131.07,69.48,265.93,132.05,397.08,201.33,5.05,2.67,16.66,7.81,20.33,10.64.77.6,2.64,2.66,2.64,3.35v117.28Z"/>
      <path class="st2" d="M3882.66-3168c.38-2.2,3.55-3.57,5.33-4.64,9.95-5.99,23-11.87,33.63-17.34,126.94-65.26,255.32-127.76,382.1-193.33l14.72.23-428.78,217.58v114.78h-7v-117.28Z"/>
      <path class="st2" d="M3049.1-3050.72h-7v-113.28l-331.16-210.27-1.66-2.82,10.44.05,327.42,205.02c.43.63,1.96,4.59,1.96,5.03v116.28Z"/>
      <path class="st2" d="M3748.73-3167c.23-1.59,1.56-4.91,3.04-5.95l322.49-201.96c4.47-3.38,9.27-2.2,14.29-1.18l-5.69,4.79-327.14,207.3v113.28h-7v-116.28Z"/>
      <path class="st2" d="M3149.04-3050.72h-7v-113.28l-246.38-204.11c-1.08-2.56,5.55-2.21,6.99-1.97l242.41,197.08c1.32.96,3.98,4.7,3.98,6.01v116.28Z"/>
      <path class="st2" d="M3648.78-3167c.24-1.37,1.91-3.93,2.94-5.05,77.31-61.32,152.35-125.52,229.46-187.06,6.34-5.06,13.01-13.12,21.46-10l-246.87,205.1v113.28h-7v-116.28Z"/>
      <path class="st2" d="M3214.01-3171.99c-55.24-56.69-109.81-113.91-164.89-170.7-10.91-11.25-22.95-21.65-33.03-33.68-.52-.61-1.19-.8-1.96-.75l.55-2.03c2.69-1.04,4.33-1.56,6.98,0s11.57,11.54,14.47,14.5c60.71,61.96,121.04,124.66,182.44,186.11.73,1.06,2.44,4.6,2.44,5.55v122.27h-7v-121.27Z"/>
      <path class="st2" d="M3576.82-3172.99c.21-1.42,1.54-4.26,2.44-5.55,48.26-48.67,96.34-97.36,144.51-146.13,16.28-16.48,33.91-37.78,51.05-52.82,3.21-2.82,4.3-2.41,8.38-1.6l.03,2.01-199.41,205.09v121.27h-7v-122.27Z"/>
      <polygon class="st2" points="3267.98 -3174.99 3160.04 -3386.07 3165.5 -3388.11 3274.98 -3175.98 3274.98 -3050.72 3267.98 -3050.72 3267.98 -3174.99"/>
      <polygon class="st2" points="3522.85 -3175.98 3632.33 -3388.11 3637.79 -3386.07 3529.85 -3175.98 3529.85 -3050.72 3522.85 -3050.72 3522.85 -3175.98"/>
      <path class="st2" d="M3315.96-3050.72h-7v-327.88c0-2.9,7-2.9,7,0v327.88Z"/>
      <path class="st2" d="M3488.87-3050.72h-7v-326.88c0-.26,1.03-2.33,1.67-2.54l5.32,1.55v327.88Z"/>
      <path class="st2" d="M3045.1-3460.95c17.69,6.63,13.96,31.23-5.46,32.99-25.81,2.34-32.98-20.18-11.52-32.48-10.17-4.56-15.27-11.97-12.57-23.52,3.92-16.8,39.79-18.72,42.46.65,1.67,12.11-4.2,15.91-12.9,22.36ZM3046.75-3486.54c-7.09-6.97-25.77-2.95-22.17,10.65,1.05,3.96,7.38,9.02,11.28,9.77,8.44,1.62,18.37-13.08,10.89-20.42ZM3034.85-3456.78c-1.67.35-6.06,4.31-7.17,5.89-12.72,18,19.88,21.4,19.38,6.52-.16-4.89-7.56-13.38-12.21-12.41Z"/>
      <path class="st2" d="M3809.7-3460.95c17.69,6.63,13.96,31.23-5.46,32.99-25.81,2.34-32.98-20.18-11.52-32.48-10.17-4.56-15.27-11.97-12.57-23.52,3.92-16.8,39.79-18.72,42.46.65,1.67,12.11-4.2,15.91-12.9,22.36ZM3811.35-3486.54c-7.09-6.97-25.77-2.95-22.17,10.65,1.05,3.96,7.38,9.02,11.28,9.77,8.44,1.62,18.37-13.08,10.89-20.42ZM3799.45-3456.78c-1.67.35-6.06,4.31-7.17,5.89-12.72,18,19.88,21.4,19.38,6.52-.16-4.89-7.56-13.38-12.21-12.41Z"/>
      <path class="st2" d="M4098.54-3442.97l7.36-.93c1.98.64,1.93,8.87,10.12,8.95,12.3.11,15.75-16.33,15.5-25.99-15.09,12.5-35.41,6.02-33.97-15.45.99-14.75,11.04-22.31,25.51-20.5,21.87,2.73,19.9,43.55,11.9,57.85-8.69,15.54-34.59,16.2-36.42-3.92ZM4116.3-3489.67c-12.6,2.06-13.68,28.39,1.67,27.66,2.61-.12,11.16-4.38,12.67-6.38.91-1.21-.05-8.63-.54-10.57-1.76-7.01-5.95-11.98-13.8-10.7Z"/>
      <path class="st2" d="M3586.81-3442.97l7.36-.93c1.98.64,1.93,8.87,10.12,8.95,12.3.11,15.75-16.33,15.5-25.99-15.09,12.5-35.41,6.02-33.97-15.45.99-14.75,11.04-22.31,25.51-20.5,21.87,2.73,19.9,43.55,11.9,57.85-8.69,15.54-34.59,16.2-36.42-3.92ZM3604.56-3489.67c-12.6,2.06-13.68,28.39,1.67,27.66,2.61-.12,11.16-4.38,12.67-6.38.91-1.21-.05-8.63-.54-10.57-1.76-7.01-5.95-11.98-13.8-10.7Z"/>
      <path class="st2" d="M3144.04-3442.97l7.36-.93c1.98.64,1.93,8.87,10.12,8.95,12.3.11,15.75-16.33,15.5-25.99-15.09,12.5-35.41,6.02-33.97-15.45.99-14.75,11.04-22.31,25.51-20.5,21.87,2.73,19.9,43.55,11.9,57.85-8.69,15.54-34.59,16.2-36.42-3.92ZM3161.79-3489.67c-12.6,2.06-13.68,28.39,1.67,27.66,2.61-.12,11.16-4.38,12.67-6.38.91-1.21-.05-8.63-.54-10.57-1.76-7.01-5.95-11.98-13.8-10.7Z"/>
      <path class="st2" d="M2661.29-3442.97l7.36-.93c1.98.64,1.93,8.87,10.12,8.95,12.3.11,15.75-16.33,15.5-25.99-15.09,12.5-35.41,6.02-33.97-15.45.99-14.75,11.04-22.31,25.51-20.5,21.87,2.73,19.9,43.55,11.9,57.85-8.69,15.54-34.59,16.2-36.42-3.92ZM2679.04-3489.67c-12.6,2.06-13.68,28.39,1.67,27.66,2.61-.12,11.16-4.38,12.67-6.38.91-1.21-.05-8.63-.54-10.57-1.76-7.01-5.95-11.98-13.8-10.7Z"/>
      <path class="st2" d="M3243-3436.99l2-19.96c-4.17,1.15-8.07,3.79-12.59,3.88-24.08.43-24.79-37.94-3.21-43.12,12.14-2.92,26.31,1.06,26.77,15.25l-7.95,2.04c-.89-9.11-7.08-11.28-15.45-9.93-14.29,2.32-13.63,34.93,8.43,26.38,4.4-1.71,6.22-5.97,11.56-.49l-2.56,33.94h-31.98v-7.98h24.99Z"/>
      <path class="st2" d="M3685.77-3436.99l2-19.96c-4.17,1.15-8.07,3.79-12.59,3.88-24.08.43-24.79-37.94-3.21-43.12,12.14-2.92,26.31,1.06,26.77,15.25l-7.95,2.04c-.89-9.11-7.08-11.28-15.45-9.93-14.29,2.32-13.63,34.93,8.43,26.38,4.4-1.71,6.22-5.97,11.56-.49l-2.56,33.94h-31.98v-7.98h24.99Z"/>
      <path class="st2" d="M3470.88-3495.87v15.97h30.98l-.78,7.71-26.72,42.19-11.48,1.01v-42.92l-8.01-.57v-7.42s8.01,0,8.01,0v-15.97h8ZM3491.87-3471.92h-20.99v32.94l20.99-32.94Z"/>
      <path class="st2" d="M3331.95-3495.87v15.97h30.98l-.78,7.71-26.72,42.19-11.48,1.01v-42.92l-8.01-.57v-7.42s8.01,0,8.01,0v-15.97h8ZM3352.94-3471.92h-20.99v32.94l20.99-32.94Z"/>
      <path class="st2" d="M2539.36-3495.87c0,2.37.38,4.64-.54,6.95-2.33,5.85-18.85,21.69-23.67,29.26-3.55,5.55-8.55,14.99-3.83,21.24,3.08,4.08,12.69,4.03,16.58.48,4.6-4.2.38-11.38,11.37-6.93.75,18.54-31.59,23.49-37.38,7.88-7.44-20.07,15.47-36.37,25.47-50.89h-26.49l-1.34-1.65-.16-6.33h39.98Z"/>
      <path class="st2" d="M4320.43-3495.87c0,2.37.38,4.64-.54,6.95-2.33,5.85-18.85,21.69-23.67,29.26-3.55,5.55-8.55,14.99-3.83,21.24,3.08,4.08,12.69,4.03,16.58.48,4.6-4.2.38-11.38,11.37-6.93.75,18.54-31.59,23.49-37.38,7.88-7.33-19.78,15.81-36.39,25.47-50.89h-26.49l-1.34-1.65-.16-6.33h39.98Z"/>
      <path class="st2" d="M4369.41-3495.87c0,2.37.38,4.64-.54,6.95-2.33,5.85-18.85,21.69-23.67,29.26-3.55,5.55-8.55,14.99-3.83,21.24,3.08,4.08,12.69,4.03,16.58.48,4.6-4.2.38-11.38,11.37-6.93.75,18.54-31.59,23.49-37.38,7.88-7.33-19.78,15.81-36.39,25.47-50.89h-26.49l-1.34-1.65-.16-6.33h39.98Z"/>
      <path class="st2" d="M2727.26-3495.87v53.9l15-2v7.99c-9.82-1.85-15.25,7.6-23.99,6.98v-66.87h9Z"/>
      <path class="st2" d="M2880.18-3495.87v53.9l15-2v7.99c-9.82-1.85-15.25,7.6-23.99,6.98v-66.87h9Z"/>
      <path class="st2" d="M2917.17-3495.87v53.9l15-2v7.99c-9.82-1.85-15.25,7.6-23.99,6.98v-66.87h9Z"/>
      <path class="st2" d="M3941.63-3495.87v53.9l15-2v7.99c-9.82-1.85-15.25,7.6-23.99,6.98v-66.87h9Z"/>
      <path class="st2" d="M3978.61-3495.87v53.9l15-2v7.99c-9.82-1.85-15.25,7.6-23.99,6.98v-66.87h9Z"/>
      <path class="st2" d="M4164.52-3495.87v53.9l14-2v7.99c-4.8-.33-9.18.93-13.34,3.15-3.19,1.7-4.08,5.4-9.65,3.83v-66.87h9Z"/>
      <polygon class="st2" points="3651.78 -3507.85 3646.65 -3486.02 3636.8 -3485.9 3643.89 -3507.75 3651.78 -3507.85"/>
      <polygon class="st2" points="3209.01 -3507.85 3203.88 -3486.02 3194.03 -3485.9 3201.12 -3507.75 3209.01 -3507.85"/>
    </g>
  </g>
  <g id="JvN5uY.tif">
    <g>
      <path class="st2" d="M586.49-3049.72l33.32,4.16c68.48,10.8,132.46,42.05,184.08,87.71h218.4l1,6.99v510.3c-.25,3.92.35,8.11,0,11.98-.16,1.77-2.01,5.14-.99,7.99l-218.19.21c-134.4,121.81-348.87,122.35-482.98-.21H101.72v-537.26h219.4c59.36-52.32,137.78-87.39,217.4-91.87h47.98ZM786.4-2957.85c-83.71-72.64-203.68-97.96-311.07-70.62-49.58,12.62-98.37,37.07-136.72,70.62h447.79ZM309.62-2947.87H113.22l-1.5,1.5v514.29l1.5,1.5h196.41c.44-1.74-.72-2-1.49-3-3.59-4.68-9.86-9.36-14.01-13.96-123.55-136.87-123.54-346.51,0-483.36,4.15-4.6,10.42-9.28,14.01-13.96.77-1.01,1.93-1.26,1.49-3ZM326.32-2947.66c-50.31,45.53-86.94,106.15-103.58,172.14-28.65,113.61,1.51,235.78,80.37,321.99,3.49,3.81,18.85,20.23,21.95,22.01.98.56,1.79,1.12,3,1h467.89c1.6.21,2.65-.22,3.99-1,3.12-1.79,18.45-18.18,21.95-22.01,121.17-132.46,121.16-338.92,0-471.38-3.49-3.81-18.85-20.23-21.95-22.01-.98-.56-1.79-1.12-3-1l-470.62.26ZM815.38-2430.58h195.41l1.5-1.5v-514.29l-1.5-1.5h-195.41c-.44,1.74.72,2,1.49,3,3.59,4.68,9.86,9.36,14.01,13.96,123.56,136.87,123.54,346.51,0,483.36-4.15,4.6-10.42,9.28-14.01,13.96-.77,1.01-1.93,1.26-1.49,3ZM786.4-2420.59h-447.79c83.71,72.64,203.68,97.96,311.07,70.62,49.58-12.62,98.37-37.07,136.72-70.62Z"/>
      <path class="st2" d="M-1077.71-2950.86l217.37-.02c133.29-121.56,348.04-123.02,480.79.02h217.4v532.26h-217.4c-132.69,123.06-347.58,121.57-480.79.02l-217.37-.02v-532.26ZM-388.04-2950.86c-80.52-71.23-191.82-100.31-297.88-80.41-60.84,11.42-118.62,39.76-164.9,80.41h462.78ZM-865.82-2945.87h-206.9v522.28h206.9c-16.82-17.44-33.26-35.31-47.2-55.2-86.85-123.9-86.71-288.77.41-412.47,13.85-19.66,30.15-37.33,46.79-54.61ZM-857.11-2945.66c-144.55,130.86-154.27,356.28-22.21,500.12,3.38,3.68,17.95,19.29,20.95,21.01.98.56,1.79,1.12,3,1h470.89c1.6.21,2.65-.22,3.99-1,3.02-1.74,17.56-17.32,20.95-21.01,124.16-135.23,124.12-343.18,0-478.37-3.38-3.68-17.95-19.29-20.95-21.01-.98-.56-1.79-1.12-3-1l-473.62.26ZM-167.15-2945.87h-205.9c16.82,17.44,33.26,35.31,47.2,55.2,86.85,123.9,86.71,288.77-.41,412.47-13.85,19.66-30.15,37.33-46.79,54.61h205.9v-522.28ZM-388.04-2418.6h-462.78c87.32,77.21,210.01,104.58,323.06,74.61,51.46-13.64,99.89-39.61,139.72-74.61Z"/>
    </g>
  </g>
  <g id="o932Sw.tif">
    <g>
      <polygon class="st2" points="-182.72 -499.44 -180.31 -498.41 -169.74 -498.45 -169.74 -271.24 -189.72 -271.24 -189.78 -496.05 -187.72 -499.44 -182.72 -499.44"/>
      <path class="st2" d="M-366.49-499.44c.13,0,1.15.88,2.41,1.04,2.22.28,4.68-.44,6.94.1l1.38,1.31-1.24,225.76h-18.48l-.06-226.65c.04-.21,3.84-1.53,4.06-1.56,1.43-.2,3.46-.06,4.99,0Z"/>
      <path class="st2" d="M-422.42-499.44c.14,0,1.14.92,2.42,1.04,3.11.28,6.44-.27,9.57-.04v227.21h-18.98l-.07-224.81,2.07-3.39c1.65.07,3.35-.11,4.99,0Z"/>
      <polygon class="st2" points="-82.85 -224.4 -87.86 -224.97 -87.91 -497.88 -83.85 -499.44 -82.85 -499.44 -82.85 -224.4"/>
      <path class="st2" d="M-150.76-211.44c-8.12-4.38,6.91-13.74,11.01-18.41,5.65-6.43,13.45-14.97,9.19-24.18-1.59-3.44-6.88-5.19-10.47-5-3.27.18-12.27,6.77-10.6.41,1.58-6,25.57-8.89,27.73,5.91,1.48,10.13-4.06,17.14-10.38,24.34-3.37,3.84-8.22,6.71-10.5,10.95h21.97l-2,1.01,1.74,2.48-1.74,2.49h-25.97Z"/>
      <path class="st2" d="M-204.7-211.44c-1.5-1.63-9.4-3.36-5.01-6.52,2.12-1.52,14.17,5.79,20.84-3.1,9.47-12.62-7.41-21.97-18.83-18.29-.73-.72,1.5-18.32,2.05-20.37.29-1.09,1.55-3.54,2.44-3.54h21.47v4.98h-17.48c-3.55,3.62-2.48,9.34-3.5,13.95,13.3-1.11,24.26,4.49,21.91,19.38-1.13,7.12-7.79,9.91-12.92,13.51h-10.99Z"/>
      <path class="st2" d="M-872.85-216.43c6.92-5.57,22.97-19.09,24.74-27.63,2.48-11.94-4.75-17.29-15.75-13.72-1.42.46-5.1,4.41-5.99.98-1.77-6.88,22.35-10.99,27.04.94,4.46,11.38-4.69,22.37-12.01,30.02-2.58,2.69-7.5,4.33-8.04,8.42h22.97l-2,5.98h-9.99c-6.34-3.11-15.26,1.63-20.97-2.99v-1.99Z"/>
      <polygon class="st2" points="-472.36 -498.45 -472.36 -271.24 -492.33 -271.24 -492.33 -496.95 -490.83 -498.45 -472.36 -498.45"/>
      <polygon class="st2" points="-635.15 -271.24 -655.13 -271.24 -655.13 -496.95 -653.63 -498.45 -636.65 -498.45 -635.15 -496.95 -635.15 -271.24"/>
      <rect class="st2" x="-601.19" y="-498.45" width="18.98" height="227.21"/>
      <rect class="st2" x="-319.55" y="-498.45" width="18.98" height="227.21"/>
      <path class="st2" d="M-759.99-272.23h-12.98v-226.21c4.14.57,9.81-1.5,12.98,1.49v224.72Z"/>
      <path class="st2" d="M-706.06-272.23h-12.98v-226.21c4.14.57,9.81-1.5,12.98,1.49v224.72Z"/>
      <path class="st2" d="M-221.67-498.45v226.21h-12.98v-224.72c3.17-2.99,8.84-.92,12.98-1.49Z"/>
      <path class="st2" d="M-121.8-272.23h-12.98v-224.72c2.82-2.43,10.27-2.39,12.98,0v224.72Z"/>
      <path class="st2" d="M-541.27-498.45v226.21h-11.98v-223.72c0-.25-.81-.59-.77-1l1.39-1.38,11.37-.12Z"/>
      <rect class="st2" x="-155.76" y="-498.45" width="11.98" height="226.21"/>
      <rect class="st2" x="-265.62" y="-498.45" width="11.98" height="226.21"/>
      <rect class="st2" x="-819.92" y="-498.45" width="4.99" height="274.05"/>
      <polygon class="st2" points="-803.94 -496.95 -802.31 -498.31 -798.93 -497.89 -798.94 -224.39 -803.94 -224.4 -803.94 -496.95"/>
      <path class="st2" d="M-456.38-498.45V-225.89l-4.99,1.49v-271.56c0-.21-.68-.53-.77-1,.17-1.93,4.21-1.56,5.77-1.49Z"/>
      <polygon class="st2" points="-98.83 -498.45 -98.83 -224.4 -102.19 -224.53 -103.82 -225.89 -103.82 -498.45 -98.83 -498.45"/>
      <polygon class="st2" points="-441.4 -498.45 -441.4 -224.4 -446.39 -225.89 -446.39 -498.45 -441.4 -498.45"/>
      <path class="st2" d="M-524.29-498.45v227.21h-5.99v-225.72c1.38-2.01,3.84-1.53,5.99-1.49Z"/>
      <path class="st2" d="M-744.01-271.24h-5.99v-225.72c0-1.98,5.99-1.98,5.99,0v225.72Z"/>
      <path class="st2" d="M-510.31-498.45v227.21l-4.85-.14c-1.69-1.02-1.25-18.13-1.19-21.33.88-51.18-.2-103,.01-154.46.06-14.54-1.04-31.73,0-45.84.37-5.1.53-6.13,6.04-5.44Z"/>
      <path class="st2" d="M-330.54-271.24h-5s-.74-225.76-.74-225.76c.39-2.48,5.74-1.52,5.74.04v225.72Z"/>
      <rect class="st2" x="-210.69" y="-498.45" width="4.99" height="227.21"/>
      <rect class="st2" x="-391.46" y="-498.45" width="4.99" height="227.21"/>
      <rect class="st2" x="-623.17" y="-498.45" width="4.99" height="227.21"/>
      <rect class="st2" x="-677.1" y="-498.45" width="4.99" height="227.21"/>
      <rect class="st2" x="-693.08" y="-498.45" width="4.99" height="227.21"/>
      <polygon class="st2" points="-276.61 -271.24 -281.6 -271.24 -281.6 -498.45 -278.24 -498.31 -276.61 -496.95 -276.61 -271.24"/>
      <path class="st2" d="M-718.31-264.04c24.39-4.19,24.88,44.87,7.8,50.65-26.91,9.1-29.51-46.92-7.8-50.65ZM-721.69-256.94c-7.51,7.17-7.24,40.65,5.97,40.26,12.68-.38,12.21-27.65,8.57-36.02-2.7-6.2-9.07-9.45-14.54-4.24Z"/>
      <path class="st2" d="M-305.82-264.03c25.07-3.97,24.76,49.76,3.75,51.63-24.13,2.16-24.63-48.33-3.75-51.63ZM-305.84-259.08c-11.6,2.55-11.61,35.36-1.63,41.08,17.7,10.14,21.02-45.35,1.63-41.08Z"/>
      <path class="st2" d="M-541.62-259.93c8.59,8.96,8.59,39.57-3.14,45.47-31.42,15.8-33.19-58.04-2.82-48.98,1.94.58,4.6,2.1,5.96,3.51ZM-557.97-218.71c2.42,2.04,6.87,2.2,9.63.72,10.31-5.53,10.26-46.31-6.96-40.83-10.32,3.28-10.04,33.91-2.67,40.12Z"/>
      <path class="st2" d="M-401.8-259.93c9.67,10.05,9.02,45.19-9.23,47.4-20.82,2.52-22.46-33.1-13.38-45.25,5.35-7.17,16.22-8.79,22.61-2.15ZM-418.15-218.71c18.42,15.45,24.12-46.98,2.67-40.12-10.58,3.38-10.04,33.94-2.67,40.12Z"/>
      <path class="st2" d="M-360.77-264.04c23.34-4.79,25.46,42.87,8.52,50.36-26.06,11.53-31.11-45.72-8.52-50.36ZM-364.15-256.94c-7.23,7.19-7.29,40.65,5.97,40.26s12.47-28.38,8.22-36.68c-2.95-5.77-9.06-8.69-14.2-3.58Z"/>
      <path class="st2" d="M-663.37-264.02c26.71-4.27,25.31,59.06-2.57,50.91-16.78-4.91-16.96-47.79,2.57-50.91ZM-663.39-259.08c-11.28,2.49-11.89,35.01-1.63,41.08,17.55,10.37,21.19-45.39,1.63-41.08Z"/>
      <path class="st2" d="M-499.57-264.05c17.6-2.58,19.53,21.04,18.11,33.06-2.99,25.48-30.66,24.67-32.89-.85-1.01-11.54.31-30.09,14.77-32.21ZM-500.62-259.07c-13.46,4.08-9.72,53.86,8.27,40.13,7.87-6,8.67-45.26-8.27-40.13Z"/>
      <path class="st2" d="M-772.22-264.04c9.51-1.37,15.85,6.07,17.78,14.67,2.68,11.94,1.24,36.09-15.07,36.97-23.33,1.27-23.19-48.7-2.7-51.65ZM-775.7-218.71c4.6,3.86,10.02,1.72,12.91-3,5.47-8.9,5.91-42.28-10.24-37.13-10.58,3.38-10.04,33.94-2.67,40.12Z"/>
      <path class="st2" d="M-608.41-264.02c21.97-2.71,23.16,38.71,10.56,48.45-26.12,20.21-36.98-45.2-10.56-48.45ZM-609.47-259.07c-8.66,1.99-8.46,22.5-7.71,29.19,1.38,12.25,13.5,19.33,19.01,6.01,3.81-9.2,4.6-38.85-11.31-35.2Z"/>
      <path class="st2" d="M-248.64-256.29c-3.47-.89-6.41,3.17-8.51,3.98-2.48.95-1.79-4.05-.5-5.48s13.01-7.04,14.28-3.22l.47,47.12-5.74,1.45v-43.85Z"/>
    </g>
  </g>
  <g id="DCLyfh.tif">
    <g>
      <path class="st2" d="M1020.24-172.44l-2.07-3.4c.24-168.15-.14-336.36.19-504.47.83-1.35,8.78-.34,8.91.43l-.03,505.88-6.01,1.56h-1Z"/>
      <path class="st2" d="M833.37-172.44l-2.07-3.4v-503.14s.16-1.37.16-1.37c.53-.92,8.8-.32,8.93.47V-174.01s-6.02,1.56-6.02,1.56h-1Z"/>
      <rect class="st2" x="1824.68" y="-680.45" width="8.99" height="507.01"/>
      <polygon class="st2" points="1098.19 -172.44 1097.19 -172.44 1095.61 -173.37 1090.19 -173.44 1090.19 -680.45 1097.73 -681.19 1099.24 -678 1099.23 -177.88 1098.19 -172.44"/>
      <path class="st2" d="M1374.99-172.44l-6.01-1.56v-505.88c.12-.79,8.39-1.39,8.92-.47l.15,1.37V-175.84s-2.06,3.4-2.06,3.4h-1Z"/>
      <polygon class="st2" points="1342.02 -172.44 1337.96 -174.01 1337.99 -679.88 1346.92 -680.35 1347.08 -174.01 1343.02 -172.44 1342.02 -172.44"/>
      <polygon class="st2" points="1028.23 -172.44 1028.22 -679.87 1036.65 -680.46 1037.24 -174.01 1029.23 -172.44 1028.23 -172.44"/>
      <polygon class="st2" points="1568.86 -172.44 1565.78 -174.87 1566.44 -680.46 1574.86 -680.44 1574.77 -173.92 1570.86 -172.44 1568.86 -172.44"/>
      <path class="st2" d="M1130.16-173.44h-9.99c.38-1.18,1.01-1.98.94-3.36-4.48-84-1.07-174.08-1.04-258.62l.1-245.01c3.28.8,7.66-2.06,9.99.49V-173.44Z"/>
      <path class="st2" d="M530.58-173.44l-10.02-.58-.07-240.47c-.02-68.72-.17-138.11.04-206.54.05-17.23-1.25-37.15,0-53.98.14-1.83.27-3.67,1.22-5.28l8.36-.22.46,507.06Z"/>
      <path class="st2" d="M820.35-680.41l.05,506.4-8.44.59-1.65-24.45c1.95-108.54,1.08-218.06,1.13-326.34l.05-157.18,8.87.98Z"/>
      <polygon class="st2" points="1678.79 -680.44 1678.8 -174.02 1670.37 -173.42 1669.77 -679.87 1678.79 -680.44"/>
      <polygon class="st2" points="498.61 -680.45 498.62 -174.02 490.18 -173.42 489.59 -679.87 498.61 -680.45"/>
      <path class="st2" d="M1689.78-680.45h9c.08,168.9-.07,338.02,0,507.01h-9v-507.01Z"/>
      <path class="st2" d="M1450.94-680.45V-173.44h-8.99v-507.01c3.27-1.19,5.73-1.19,8.99,0Z"/>
      <path class="st2" d="M778.41-680.45V-173.44h-8.99v-507.01c3.16-.33,5.87-1.16,8.99,0Z"/>
      <polygon class="st2" points="1802.7 -680.45 1802.7 -173.44 1793.71 -173.44 1793.71 -679.95 1795.19 -681.08 1802.7 -680.45"/>
      <rect class="st2" x="614.52" y="-680.45" width="8.99" height="507.01"/>
      <polygon class="st2" points="633.51 -680.45 633.51 -173.44 624.51 -173.44 624.51 -679.95 625.98 -681.14 633.51 -680.45"/>
      <rect class="st2" x="707.46" y="-680.45" width="8.99" height="507.01"/>
      <polygon class="st2" points="509.59 -680.45 509.59 -173.44 500.6 -173.44 500.6 -681.45 509.59 -680.45"/>
      <rect class="st2" x="1648.81" y="-680.45" width="8.99" height="507.01"/>
      <polygon class="st2" points="685.47 -680.45 685.47 -173.44 676.48 -173.44 676.48 -679.95 677.93 -681.2 685.47 -680.45"/>
      <polygon class="st2" points="405.66 -173.44 396.67 -173.44 396.67 -680.45 405.66 -681.45 405.66 -173.44"/>
      <path class="st2" d="M1006.25-173.44h-9s.03-506.93.03-506.93c2.72-.28,6.83-1.74,8.97.43V-173.44Z"/>
      <polygon class="st2" points="1058.21 -173.44 1049.22 -173.44 1049.22 -680.45 1056.76 -681.2 1058.21 -679.95 1058.21 -173.44"/>
      <rect class="st2" x="1059.21" y="-680.45" width="8.99" height="507.01"/>
      <polygon class="st2" points="1089.19 -680.45 1089.19 -173.44 1080.2 -173.44 1080.2 -679.95 1081.65 -681.2 1089.19 -680.45"/>
      <polygon class="st2" points="1408.97 -173.44 1399.98 -173.44 1399.98 -680.45 1407.52 -681.2 1408.97 -679.95 1408.97 -173.44"/>
      <rect class="st2" x="1307.04" y="-680.45" width="8.99" height="507.01"/>
      <rect class="st2" x="1328.03" y="-680.45" width="8.99" height="507.01"/>
      <rect class="st2" x="1741.74" y="-680.45" width="8.99" height="507.01"/>
      <rect class="st2" x="645.5" y="-680.45" width="8.99" height="507.01"/>
      <rect class="st2" x="1420.96" y="-680.45" width="8.99" height="507.01"/>
      <rect class="st2" x="1389.98" y="-680.45" width="8.99" height="507.01"/>
      <rect class="st2" x="1359.01" y="-680.45" width="8.99" height="507.01"/>
      <rect class="st2" x="1152.15" y="-680.45" width="8.99" height="507.01"/>
      <rect class="st2" x="1110.18" y="-680.45" width="8.99" height="507.01"/>
      <rect class="st2" x="655.49" y="-680.45" width="8.99" height="507.01"/>
      <rect class="st2" x="562.56" y="-680.45" width="8.99" height="507.01"/>
      <rect class="st2" x="1710.76" y="-680.45" width="8.99" height="507.01"/>
      <rect class="st2" x="469.62" y="-680.45" width="8.99" height="507.01"/>
      <path class="st2" d="M1534.88-680.45h9c-.8.98,0,1.88,0,2.5V-173.44h-8.99v-507.01Z"/>
      <polygon class="st2" points="1276.06 -679.95 1278.1 -681.03 1285.06 -680.45 1285.11 -266.71 1285.06 -173.44 1276.06 -173.44 1276.06 -679.95"/>
      <path class="st2" d="M550.56-680.45V-173.44h-8.99c0-168.68.02-337.65-.02-506.43l9.01-.57Z"/>
      <polygon class="st2" points="1202.11 -680.45 1202.11 -173.44 1194.27 -173.58 1193.08 -184.86 1193.06 -679.84 1202.11 -680.45"/>
      <polygon class="st2" points="861.35 -680.45 861.35 -173.44 852.35 -173.44 852.31 -235.87 852.31 -246.75 852.34 -679.87 861.35 -680.45"/>
      <path class="st2" d="M1150.15-680.45V-173.44h-8.99c0-168.68.02-337.65-.02-506.43l9.01-.57Z"/>
      <path class="st2" d="M695.46-680.45V-173.44l-9.01-.57c-.01-168.81.09-337.72.01-506.44h9Z"/>
      <path class="st2" d="M1503.91-680.45c1.51.22,8.52-1.3,9.05.61l-.04,505.87-9.01.52v-507.01Z"/>
      <polygon class="st2" points="1605.84 -680.45 1605.84 -173.44 1596.84 -173.45 1596.8 -215.8 1596.82 -679.87 1605.84 -680.45"/>
      <polygon class="st2" points="602.53 -680.45 602.53 -173.44 593.52 -174.02 593.49 -671.01 594.54 -680.44 602.53 -680.45"/>
      <path class="st2" d="M1524.89-680.45h8.53c1.1,168.81.1,338.26.46,507h-8.99s0-507,0-507Z"/>
      <polygon class="st2" points="1762.73 -680.45 1770.6 -680.32 1771.77 -667.02 1771.74 -174.02 1762.73 -173.44 1762.73 -680.45"/>
      <polygon class="st2" points="581.54 -679.45 581.54 -173.44 572.55 -173.45 572.49 -672.01 572.55 -680.44 581.54 -679.45"/>
      <polygon class="st2" points="1214.11 -680.45 1223.1 -680.44 1223.15 -549.16 1223.1 -173.45 1214.11 -173.44 1214.11 -680.45"/>
      <polygon class="st2" points="395.66 -680.43 395.69 -174.02 387.25 -173.42 386.8 -680.31 395.66 -680.43"/>
      <polygon class="st2" points="892.33 -680.45 892.33 -173.44 883.34 -173.45 884.23 -231.72 883.32 -679.87 892.33 -680.45"/>
      <path class="st2" d="M1297.05-680.45h7.99c-.37,2.33.67,4.49.88,6.62,2.43,23.72-1.71,50.88.18,74.68-3.82,138,4.89,278.57,0,416.27-.12,3.39-1.81,6.36-.05,9.43h-8.99s0-507,0-507Z"/>
      <path class="st2" d="M1555.87-680.45h9s.04,177.2.04,177.2c.04,107.5,2.2,216.76-1.14,324.33-.05,1.75.65,3.34,1.11,4.97l-9.01.51v-507.01Z"/>
      <path class="st2" d="M426.65-680.45V-173.44l-6.83-.16-1.18-2.36,1.97-.91-2.99-12.01-.02-490.1c-.52-3.09,9.05-1.96,9.05-1.47Z"/>
      <path class="st2" d="M1647.81-680.44c-1.59,3.44-.05,6.82.05,10.43,1.04,37.77-.04,76.08,0,113.77.11,106.4.29,213.29,0,319.38-.06,21.14.65,42.42-1.04,63.43h-8.49s-.5-507-.5-507h9.99Z"/>
      <path class="st2" d="M1617.83-680.45l9.05.61c-.45,144.02.38,288.06-.01,432.09-.03,10.32,0,20.73-.01,30.95l-.03,43.36h-9v-507.01Z"/>
      <polygon class="st2" points="871.34 -680.45 871.34 -173.44 862.34 -173.44 862.29 -250.74 862.33 -679.94 871.34 -680.45"/>
      <path class="st2" d="M902.32-680.45V-173.44h-8.99c.1-23.01-.02-46.29-.06-69.41-.2-142.39.37-285.61.03-428.17l1.09-9.35,7.93-.07Z"/>
      <path class="st2" d="M933.3-680.45V-173.44h-8.99c.41-1.14.79-1.94.81-3.22,1.49-163.51-5.37-329.79-.86-493.35.1-3.61,1.64-6.99.05-10.43h8.99Z"/>
      <path class="st2" d="M1491.91-680.45V-173.44l-7.89-.11c-1.99-26.78-1.08-54.26-1.13-81.29-.22-119.11-.21-239.05,0-358.18.04-22.25.16-44.57-.05-66.77.53-2.45,7.3-.33,9.07-.66Z"/>
      <path class="st2" d="M468.62-680.44V-173.45s-8.43.03-8.43.03c-.52-.08-1.53-8.97-1.61-10.45-.77-13.06.06-28.43,0-41.92-.63-118.81-.05-238.57.01-356.3.02-33.09-.71-66.39,1.05-99.35l8.98,1.01Z"/>
      <path class="st2" d="M728.44-680.45l6.75-.34,1.36,1.02c-.1,32-.19,64.48-.16,96.67.12,122.03.94,245.03,0,367.19-.11,14.15.16,28.33.05,42.46h-8v-507.01Z"/>
      <path class="st2" d="M1814.69-681.45l8.99,1.01c-1.69,8.29-1.12,17.85-1.04,26.48,1.51,156.67-2.16,313.49,0,470.1.05,3.28.1,7.3,1.04,10.41h-8.99s0-507.99,0-507.99Z"/>
      <path class="st2" d="M1586.85-681.45l8.99,1.01c-.94,3.11-.99,7.13-1.04,10.41-.71,52.17.23,104.85.24,156.76,0,98.93-.76,198.35-.24,297.48.07,14.09,1.69,28.19-.07,42.25l-7.89.1v-508Z"/>
      <path class="st2" d="M1783.71-680.45l8.95.08c-.54,3.42.21,6.92.08,10.44-3.7,102.44-1.08,207.56-1.09,310.39,0,58.53-.13,117.79,0,176.65,0,3.34,1.77,6.25-.1,9.3l-7.85.14v-507.01Z"/>
      <polygon class="st2" points="1264.07 -680.45 1264.07 -173.44 1256.07 -173.44 1256.13 -544.26 1255 -560.2 1256.07 -680.45 1264.07 -680.45"/>
      <polygon class="st2" points="757.42 -680.45 757.42 -173.44 749.52 -173.53 748.63 -569.17 749.52 -680.35 757.42 -680.45"/>
      <polygon class="st2" points="438.64 -680.45 447.63 -680.44 447.63 -173.45 438.64 -173.44 438.64 -680.45"/>
      <polygon class="st2" points="985.26 -680.45 985.26 -173.44 977.27 -173.44 977.27 -681.45 985.26 -680.45"/>
      <path class="st2" d="M1243.09-680.45V-173.44h-7.99v-506.51c1.77-2.23,5.39-.32,7.99-.5Z"/>
      <rect class="st2" x="915.31" y="-680.45" width="7.99" height="507.01"/>
      <polygon class="st2" points="964.28 -173.44 956.28 -173.44 956.28 -680.45 962.83 -681.2 964.28 -679.95 964.28 -173.44"/>
      <rect class="st2" x="1462.93" y="-680.45" width="7.99" height="507.01"/>
    </g>
  </g>
  <g id="H2eDjT.tif">
    <g>
      <path class="st2" d="M3555.37-2942.3l2.41,1.03c6.68-.07,13.13-1.33,17.01,4.93,4.58,7.38-.41,14.21-6.43,18.57,14.31,4.42,11.32,22.92-2.74,25.3-3.48.59-9.92.62-13.29-.23-11.25-2.85-10.89-22.46,1.02-24.09-.15-1.55-2.33-1.5-3.56-2.87-3.16-3.53-4.91-10.45-2.92-14.77,1.11-2.4,6.34-4.32,6.48-7.87h2ZM3559.08-2935.21c-11.98,2.69,2.42,22.1,8.52,8.37,2.82-6.34-2.36-9.76-8.52-8.37ZM3559.1-2913.68c-8.66,1.3-9.88,15.95,1.69,15.49,14.4-.57,7.09-16.81-1.69-15.49Z"/>
      <path class="st2" d="M4577.06-2921.68v4.91c-1.61.93-1.64,4.9,0,5.89v3.93c-3.15,7.58-3.45,13.78-12,17.67h-12c-12.33-4.42-12.17-21.94-10.89-32.77,1.63-13.79,10.8-19.59,24.44-15.38,8.45,2.61,7.17,9.32,10.44,15.76ZM4556.78-2931.29c-10.99,2.48-8.62,46.02,6.8,34.15,5.75-4.42,5.58-25.75,1.94-31.37-2.09-3.24-5.06-3.61-8.74-2.78Z"/>
      <path class="st2" d="M3156.49-2942.3l2.41,1.03c2.28.17,11.16-.28,12.38.23.4.17,5.24,5.5,5.76,6.53,3.68,7.27,3.51,27.09-.05,34.42-4.05,8.34-17.76,10.63-24.88,5.75-4.35-2.98-4.22-9.47-7.49-12.09,2.3-9.21-1.17-19.69,4.01-28.37,1.64-2.75,5.38-4.04,5.85-7.51h2ZM3160.21-2934.23c-10.99,2.48-8.62,46.02,6.8,34.15,5.75-4.42,5.58-25.75,1.94-31.37-2.09-3.24-5.06-3.61-8.74-2.78Z"/>
      <path class="st2" d="M3194.48-2942.3l2.41,1.03c2.28.17,11.16-.28,12.38.23.4.17,5.24,5.5,5.76,6.53,4.77,9.42,4.92,38.36-8.53,41.8-23.33,5.97-25.22-17.31-22.57-33.94,1.24-7.77,4.83-9.52,8.55-15.65h2ZM3198.19-2934.23c-10.99,2.48-8.62,46.02,6.8,34.15,5.75-4.42,5.58-25.75,1.94-31.37-2.09-3.24-5.06-3.61-8.74-2.78Z"/>
      <path class="st2" d="M3591.36-2942.3l2.41,1.03c2.28.17,11.16-.28,12.38.23.4.17,5.24,5.5,5.76,6.53,4.77,9.42,4.92,38.36-8.53,41.8-23.33,5.97-25.22-17.31-22.57-33.94,1.24-7.77,4.83-9.52,8.55-15.65h2ZM3595.07-2934.23c-10.99,2.48-8.62,46.02,6.8,34.15,5.75-4.42,5.58-25.75,1.94-31.37-2.09-3.24-5.06-3.61-8.74-2.78Z"/>
      <path class="st2" d="M3629.35-2942.3l2.41,1.03c2.28.17,11.16-.28,12.38.23.4.17,5.24,5.5,5.76,6.53,4.77,9.42,4.92,38.36-8.53,41.8-23.33,5.97-25.22-17.31-22.57-33.94,1.24-7.77,4.83-9.52,8.55-15.65h2ZM3633.06-2934.23c-10.99,2.48-8.62,46.02,6.8,34.15,5.75-4.42,5.58-25.75,1.94-31.37-2.09-3.24-5.06-3.61-8.74-2.78Z"/>
      <path class="st2" d="M4068.22-2942.3l2.41,1.03c2.28.17,11.16-.28,12.38.23.4.17,5.24,5.5,5.76,6.53,4.77,9.43,4.92,38.36-8.53,41.8-23.33,5.97-25.22-17.31-22.57-33.94,1.24-7.77,4.83-9.53,8.55-15.65h2ZM4071.93-2934.23c-10.99,2.48-8.62,46.02,6.8,34.15,5.75-4.42,5.58-25.75,1.94-31.37-2.09-3.24-5.06-3.61-8.74-2.78Z"/>
      <path class="st2" d="M4106.21-2942.3l2.41,1.03c2.28.17,11.16-.28,12.38.23.4.17,5.24,5.5,5.76,6.53,4.77,9.42,4.92,38.36-8.53,41.8-23.33,5.97-25.22-17.31-22.57-33.94,1.24-7.77,4.83-9.52,8.55-15.65h2ZM4109.92-2934.23c-10.99,2.48-8.62,46.02,6.8,34.15,5.75-4.42,5.58-25.75,1.94-31.37-2.09-3.24-5.06-3.61-8.74-2.78Z"/>
      <path class="st2" d="M4531.08-2889.3h-2l-.79-.67-1.21.67h-12c-14.12-3.82-13.45-33.99-7.45-43.14,5.16-7.88,20.54-8.41,26.45-1.53,5.64,6.58,5.19,29.24,1.51,36.83-1.48,3.05-4.76,4.2-4.51,7.84ZM4518.79-2931.29c-10.99,2.48-8.62,46.02,6.8,34.15,5.75-4.42,5.58-25.75,1.94-31.37-2.09-3.24-5.06-3.61-8.74-2.78Z"/>
      <path class="st2" d="M3455.4-2942.3l2.42,1.02c3.26.22,10.62-.65,13.09.18.3.1,4.43,3.2,5,3.68,9.37,8.04,10.01,21.29,5.96,32.38-6.47,17.71-34.16,17.73-40.51-.42-3.16-9.01-2.52-22.91,4.51-30.02,2.46-2.49,6.92-3.26,7.53-6.84h2ZM3458.14-2935.19c-16.51,2.99-16.6,41.18,7.53,36.82,15.97-2.88,17.55-41.37-7.53-36.82Z"/>
      <path class="st2" d="M3903.27-2942.3l2.42,1.02c3.26.22,10.62-.65,13.09.18.3.1,4.43,3.2,5,3.68,9.37,8.04,10.01,21.29,5.96,32.38-6.47,17.71-34.16,17.73-40.51-.42-3.16-9.01-2.52-22.91,4.51-30.02,2.46-2.49,6.92-3.26,7.53-6.84h2ZM3906-2935.19c-16.51,2.99-16.6,41.18,7.53,36.82,15.97-2.88,17.55-41.37-7.53-36.82Z"/>
      <path class="st2" d="M4359.13-2889.3h-13c-1-1.18-2.01-1.2-3,0h-2c-3.31-6.03-7.43-7.49-9.52-14.7-5.72-19.79,5.72-39.6,28.54-33.91,20.58,5.13,19.04,42.99-1.03,48.61ZM4348.87-2932.25c-16.51,2.99-16.6,41.18,7.53,36.82,15.97-2.88,17.55-41.37-7.53-36.82Z"/>
      <path class="st2" d="M3019.53-2942.3c3.18.19,10.31.61,13.27,1.2,21.03,4.19,20.01,43.23.54,48.18-24.85,6.32-35.84-17.63-27-37.31,2.83-6.31,8.21-6.83,11.19-12.08.66.02,1.34-.04,2,0ZM3022.27-2935.19c-16.51,2.99-16.6,41.18,7.53,36.82,15.97-2.88,17.55-41.37-7.53-36.82Z"/>
      <path class="st2" d="M4297.15-2889.3c-1.83-4.61-7.76-8.44-6.05-14.26l5.9-.3c-.29,10.41,19.66,11.57,21.14,4.27,2.83-13.92-18.57-9.44-23.86-18.79-11.69-20.66,28.46-29.59,30.81-7.66.26,2.46-4.61,1.39-6.01,1.99-.74-13.49-25.12-10.04-18.72,1.66,4.59,8.4,27.19,2.73,24.79,21.84-.8,6.39-4.77,8.5-10.02,11.26h-14l-1.21-.67-.79.67h-2Z"/>
      <path class="st2" d="M4440.1-2889.3c.17-4.62-7.34-7.34-4.05-12.31l6.42-.5,2.83,5.73c6.32.9,11.63.85,12.76-6.26,1.36-8.58-7.25-9.63-13.97-9.23v-5.9c11.98,3.69,18.85-14.85,6.62-14.7-6.57.08-6.61,6.33-8.19,6.73-.86.22-5.98-1.17-6.39-2.43-.89-2.74,5.41-9.01,7.9-9.77,18.36-5.56,30.54,11.97,13.05,22.63,8.73,1.89,10.62,8.39,8.78,16.47-.98,4.29-5.88,5.44-5.79,9.53h-2l-.79-.67-1.21.67h-12l-1.21-.67-.79.67h-2Z"/>
      <path class="st2" d="M1276.06-2896.17l15.88-43.58c.78-1.08,9.27-1.4,9.95,1.05l16.16,45.47-7.88-.11-4.21-13.52-18.29-.16-4.74,13.67-6.86.14v-2.94ZM1290.06-2912.85h14l-1.91-1.04.92-2.31-1.79-.73.78-2.2-1.77-.74.77-2.2-1.77-.74.77-2.2-1.77-.74c1.73-3.48-.57-2.46-.91-2.98s1.42-3.33-1.31-3.73l-6.01,19.63Z"/>
      <path class="st2" d="M2739.96-2895.51c-7.83-7.48-7.58-35.03.62-42.41,5.41-4.87,18.76-4.98,23.5.57,6.17,7.23,6.05,29.86,1.74,37.95s-19.51,9.95-25.86,3.89ZM2749.33-2934.23c-10.99,2.48-8.62,46.02,6.8,34.15,5.75-4.42,5.58-25.75,1.94-31.37-2.09-3.24-5.06-3.61-8.74-2.78Z"/>
      <path class="st2" d="M2289.09-2895.51c-7.83-7.48-7.58-35.03.62-42.41,5.41-4.87,18.76-4.98,23.5.57,6.17,7.23,6.05,29.86,1.74,37.95s-19.51,9.95-25.86,3.89ZM2298.47-2934.23c-10.99,2.48-8.62,46.02,6.8,34.15,5.75-4.42,5.58-25.75,1.94-31.37-2.09-3.24-5.06-3.61-8.74-2.78Z"/>
      <path class="st2" d="M2702.97-2895.51c-7.83-7.48-7.58-35.03.62-42.41,5.41-4.87,18.76-4.98,23.5.57,6.17,7.23,6.05,29.86,1.74,37.95s-19.51,9.95-25.86,3.89ZM2712.34-2934.23c-10.99,2.48-8.62,46.02,6.8,34.15,5.75-4.42,5.58-25.75,1.94-31.37-2.09-3.24-5.06-3.61-8.74-2.78Z"/>
      <path class="st2" d="M2252.1-2895.51c-7.83-7.48-7.58-35.03.62-42.41,5.41-4.87,18.76-4.98,23.5.57,6.17,7.23,6.05,29.86,1.74,37.95-4.39,8.25-19.51,9.95-25.86,3.89ZM2261.48-2934.23c-10.99,2.48-8.62,46.02,6.8,34.15,5.75-4.42,5.58-25.75,1.94-31.37-2.09-3.24-5.06-3.61-8.74-2.78Z"/>
      <path class="st2" d="M1815.24-2895.51c-7.83-7.48-7.58-35.03.62-42.41,5.41-4.87,18.76-4.98,23.5.57,6.17,7.23,6.05,29.86,1.74,37.95-4.39,8.25-19.51,9.95-25.86,3.89ZM1824.61-2934.23c-10.99,2.48-8.62,46.02,6.8,34.15,5.75-4.42,5.58-25.75,1.94-31.37-2.09-3.24-5.06-3.61-8.74-2.78Z"/>
      <path class="st2" d="M4046.99-2940.98c1.64.76,7.61,8.51,6.2,10.42l-7.96,2.01c.21-5.6-5.14-8.51-9.95-5.34-3.84,2.53-5.31,10.85-5.04,15.15,1.6.14.4-1.45,2.34-2.14,14.52-5.15,23.99,4.48,20.17,18.86-2.97,11.19-21.62,14.33-27.55,3.44-5.45-10-4.28-29.41,3.03-38.32.36-.44,3.93-4.01,4.2-4.13.73-.31,13.74-.32,14.56.06ZM4037.96-2915.59c-12.85,1.08-7.05,17.19-.26,17.35,9.68.24,10.79-18.24.26-17.35Z"/>
      <path class="st2" d="M2574.4-2941.09c12.05-2.4,23.44,2.42,26.81,14.46,3.35,11.97-.46,31.67-15.28,34.16-35.96,6.04-35.09-43.93-11.53-48.62ZM2576.4-2935.19c-16.51,2.99-16.6,41.18,7.53,36.82,15.97-2.88,17.55-41.37-7.53-36.82Z"/>
      <path class="st2" d="M2130.53-2941.09c12.05-2.4,23.44,2.42,26.81,14.46,3.35,11.97-.46,31.67-15.28,34.16-35.96,6.04-35.09-43.93-11.53-48.62ZM2132.54-2935.19c-16.51,2.99-16.6,41.18,7.53,36.82,15.97-2.88,17.55-41.37-7.53-36.82Z"/>
      <path class="st2" d="M1685.67-2941.09c12.05-2.4,23.44,2.42,26.81,14.46,3.35,11.97-.46,31.67-15.28,34.16-35.96,6.04-35.09-43.93-11.53-48.62ZM1687.67-2935.19c-16.51,2.99-16.6,41.18,7.53,36.82,15.97-2.88,17.55-41.37-7.53-36.82Z"/>
      <path class="st2" d="M1418.75-2941.09c12.05-2.4,23.44,2.42,26.81,14.46,3.35,11.97-.46,31.67-15.28,34.16-35.96,6.04-35.09-43.93-11.53-48.62ZM1420.75-2935.19c-16.51,2.99-16.6,41.18,7.53,36.82,15.97-2.88,17.55-41.37-7.53-36.82Z"/>
      <path class="st2" d="M3137.5-2941.31v30.43h7s-1.93,6.45-1.93,6.45l-5.08.42v10.8s-8,0-8,0v-10.8s-20.49,0-20.49,0c-2.44-1.9-1.73-5.02-.72-7.58,3.62-9.2,15.19-19.99,19.32-29.61,3.25,1.28,6.7,1.44,9.88-.1ZM3129.5-2910.89v-20.61l-14,20.61h14Z"/>
      <path class="st2" d="M1802.9-2940.33c-.07,2.39.76,5.28-1.5,6.87h-17.49l-.99,11.77c14.71-6.24,24.44,1.61,21.93,17.12-2.59,15.96-28.74,16.7-31.54,2.56-.8-4.05,4.72-2.84,7.6-3.98-.38,5.99,3.85,7.68,9.44,6.82,8.81-1.36,7.86-15.93,2.87-17.42-7.92-2.36-10.6,5.21-17.13.63l1.82-24.37h24.99Z"/>
      <path class="st2" d="M3427.23-2941.07c.32.18,4.86,4.92,5.07,5.26.71,1.14,2.57,7.82,2.12,8.23l-6.06.58c-.17-11.38-20.65-11.45-19.75-1.31.92,10.4,24.18,6.97,25.85,18.84,2.16,15.33-12.04,20.1-25.07,16.77-6.89-1.76-15.62-16.85-3.11-14.1,1.11,12,23.86,12.54,21.12-.63-1.84-8.84-24.74-4.21-25.72-19.89-.3-4.75,3.4-11.37,7.73-13.38,1.4-.65,17.06-.81,17.83-.37Z"/>
      <path class="st2" d="M3875.09-2941.07c.32.18,4.86,4.92,5.07,5.26.71,1.14,2.57,7.82,2.12,8.23l-6.06.58c-.17-11.38-20.65-11.45-19.75-1.31.92,10.4,24.18,6.97,25.85,18.84,2.16,15.33-12.04,20.1-25.07,16.77-6.89-1.76-15.62-16.85-3.11-14.1,1.11,12,23.86,12.54,21.12-.63-1.84-8.84-24.74-4.21-25.72-19.89-.3-4.75,3.4-11.37,7.73-13.38,1.4-.65,17.06-.81,17.83-.37Z"/>
      <path class="st2" d="M2998.55-2927.58l-6.06.58c-1.25-15-27.29-8.36-17.97,2.9,6.09,7.36,27.12,1.89,23.96,21.5-1.88,11.67-22.74,13.71-29.97,6.98-4.23-3.94-8.09-14,1.9-11.18,1.24,12.61,25.19,12.08,20.94-1.45-2.42-7.73-25.37-3.67-25.6-19.8-.26-17.96,33.53-18.56,32.8.47Z"/>
      <path class="st2" d="M1663.95-2927.58l-6.06.58c-.11-10.46-18.33-11.79-19.77-2.82-1.87,11.65,22.9,8.03,25.6,19.63,5.29,22.67-32.54,24.87-34.78,4.22l6.92-.9c.29,13,26.96,11.93,20.56-2.04-3.25-7.09-25.28-3.75-25.29-19.15,0-17.66,33-18.73,32.81.49Z"/>
      <path class="st2" d="M2108.82-2927.58l-6.06.58c-.11-10.46-18.33-11.79-19.77-2.82-1.87,11.65,22.9,8.03,25.6,19.63,5.29,22.67-32.54,24.87-34.78,4.22l6.92-.9c.29,13,26.96,11.93,20.56-2.04-3.25-7.09-25.28-3.75-25.29-19.15,0-17.66,33-18.73,32.81.49Z"/>
      <path class="st2" d="M2552.68-2927.58l-6.06.58c-.11-10.46-18.33-11.79-19.77-2.82-1.87,11.65,22.9,8.03,25.6,19.63,5.29,22.67-32.54,24.87-34.78,4.22l6.92-.9c.29,13,26.96,11.93,20.56-2.04-3.25-7.09-25.28-3.75-25.29-19.15,0-17.66,33-18.73,32.81.49Z"/>
      <path class="st2" d="M4481.09-2897.15h19.99v6.87h-29.99c-1.03-10.14,10.32-17.21,15.83-25.19,1.98-2.87,4.73-6.38,4.95-9.92.54-8.64-14.19-8.7-13.86.68l-7.92-.9c-.1-15.59,28.34-17.83,30.02-3.45,1.57,13.42-11.78,22.24-19.02,31.92Z"/>
      <path class="st2" d="M2673.64-2900.09h19.99v6.87h-29.99c0-2.34-.38-4.56.54-6.83,2.53-6.24,15.82-15.82,18.94-23.6,5.22-13.03-11.07-15.43-12.56-4l-7.92-.9c.62-15.23,27.62-18.15,29.93-3.36,2.02,12.93-12.01,22.5-18.93,31.84Z"/>
      <path class="st2" d="M1331.05-2940.33v36.81c0,6.02,16.4,7.91,20.06,2.03.43-.69,1.94-5.44,1.94-5.95v-32.88h6v36.81c0,.26-1.75,4.11-2.15,4.76-5.32,8.69-22.73,9.09-29.37,1.65-.68-.76-3.47-5.01-3.47-5.43v-37.79h7Z"/>
      <path class="st2" d="M1402.02-2940.33c-.04,1.91.67,5-1.64,5.75l-13.36.14v41.22h-7v-41.22h-14v-5.89h35.99Z"/>
      <path class="st2" d="M4011.23-2941.31v48.09h-8v-37.3l-11,1.97v-6.87c4.65.53,8.46-1.84,12.28-3.96.7-.39.76-1.72.86-1.76.63-.22,4,1.69,5.85-.18Z"/>
      <path class="st2" d="M2237.77-2940.33v47.11h-8v-37.3l-11,1.97v-6.87c7.45,1.12,11.92-6,19-4.91Z"/>
      <path class="st2" d="M2957.55-2941.31v48.09h-7v-48.09c2.51,1.33,4.48,1.33,7,0Z"/>
      <path class="st2" d="M3393.42-2941.31v48.09h-7v-48.09c2.51,1.33,4.48,1.33,7,0Z"/>
      <path class="st2" d="M3841.29-2941.31v48.09h-7v-48.09c2.51,1.33,4.48,1.33,7,0Z"/>
      <rect class="st2" x="4277.15" y="-2937.39" width="7" height="47.11"/>
      <rect class="st2" x="1615.96" y="-2940.33" width="7" height="47.11"/>
      <rect class="st2" x="2060.83" y="-2940.33" width="7" height="47.11"/>
      <rect class="st2" x="2504.69" y="-2940.33" width="7" height="47.11"/>
    </g>
  </g>
  <g id="T887tb.tif">
    <g>
      <path class="st2" d="M2417.6-595.44c1.18,1.38,2.92,1.63,4.6,1.89,68.67,10.44,137.83,18.59,206.63,28.22,490.33,68.63,980.52,138.47,1470.86,207.08l2.49,1.51c1.61,3.66-.27,5.46-4,5.1l-1685.54-237.34-2.02-3.89,3.98-2.56h3Z"/>
      <path class="st2" d="M2313.65-.15l7.45-1.04,1720.61,242.23,1.06,3.03c.14,2.57-3.77,2.24-5.58,2.58C3468.55,164.51,2898.84,89.44,2330.29,6.7c-5.58-.81-11.61-1.21-16.63-3.85V-.15Z"/>
      <path class="st2" d="M2686.45-59.09l1352.69,189.85c3.43.04,5.24,5.68,1.91,6.78l-1703.15-239.31-2.12-1.88,1.03-3.23,8.33-.13,335.32,46.94,74.53-372.49,2.91-2.07,2.05,3.45-73.49,372.09Z"/>
      <path class="st2" d="M2924.02-410.38l150.08,313.64c-1.24,2.65-3.82,3.87-5.91,1.24l-149.37-312.05c-.57-3.19,2.87-4.87,5.2-2.83Z"/>
      <path class="st2" d="M3027.08-409.46l181.93,249.25c-2.38,9.35-7.09,1.17-10.24-2.85-16.85-21.49-32.03-44.7-48.15-66.77-42.57-58.29-87.24-117.52-122.26-168.38-.38-.55-4.3-3.77-4.72-4.68-1.79-3.86-2.25-7.93,3.45-6.57Z"/>
      <path class="st2" d="M2909.47-73.22c-.62-.98.02-6.93-.28-9.2-2.78-21.53-6.76-43.28-10.16-64.76-16.14-101.99-33.17-203.9-48.76-305.95,4.24-10.46,6.21,7.14,6.9,11.17,20.82,121.51,35.82,244.1,57.06,365.56,1.58,3.86-3.32,5.47-4.77,3.18Z"/>
      <path class="st2" d="M2824.28-163.05c-1.77.38-4.12.43-4.76-1.54-1.15-7.95.61-16.15.9-23.79,1.62-42.36,3.74-84.45,6-126.85.99-18.61.17-39.62,3.05-57.88.2-1.24.39-4.09,2.39-3.58,5.09,1.98,1.6,18.78,1.47,23.42-1.48,52.64-4.12,105.16-7,157.81-.23,4.27,0,31.06-2.05,32.4Z"/>
      <path class="st2" d="M2721.42-424.64l-59.91,183.32c-2.41,2.81-5.22,1.55-5.13-2.04,19.39-56.31,35.6-114.89,56.04-170.83,1.79-4.9,2.61-12.19,9.01-10.46Z"/>
      <path class="st2" d="M3112.18-208.93c-2.81.54-5.05,1.26-6.83-1.61l-47.96-70.92-1.15-6.33c3.13-3.13,10.23,8.51,11.8,10.67,14.93,20.48,28.22,42.29,43,62.9l1.13,5.31Z"/>
      <path class="st2" d="M2992.79-382.69c1.49-.31,3.02,2.08,3.9,3.08,16.76,19.15,29.72,47.58,46.37,67.51l2.02,4c.18,2.09-2.93,4.22-4.84,2.86l-48.03-69.89c-1.38-2.27-1.77-5.73.58-7.56Z"/>
      <path class="st2" d="M3134.2-171.94c1.41-.13,2.65-.11,3.97.52,2.64,1.25,23.96,32.66,27.23,37.71,1.79,2.76,7.09,9.39,6.8,12.16-.39,3.71-2.98,3.87-5.44,1.45-5.54-5.45-15.89-22.7-20.8-30.15-1.96-2.97-13.92-19.57-11.77-21.69Z"/>
      <path class="st2" d="M3159.19-343.73c.99-1.18,6.68,5.09,7.5,5.97,5.07,5.4,11.88,13.61,16.45,19.52,1.03,1.33,6.14,6.72,2.51,7.46-1.34.27-3.1-2.04-3.99-2.98-4.63-4.83-18.58-20.43-21.53-25.43-.94-1.59-1.19-2.7-.94-4.54Z"/>
      <path class="st2" d="M3151.18-348.74l-4.06-1.43c-3.73-6.94-15.49-16.06-18.4-22.56-.9-2.01-.75-2.63.98-3.95,5.9,7.24,13.49,14.56,18.9,22.05,1.28,1.78,2.92,3.44,2.59,5.9Z"/>
      <path class="st2" d="M3124-402.43c4.53,7.14,12.45,13.47,17.02,20.41,1.38,2.09,2.68,3.51,2.16,6.32-1.75.35-2.47-.9-3.51-1.98-3.04-3.15-16.57-19.03-17.95-22.01-1.29-2.8-.7-3.65,2.28-2.74Z"/>
      <path class="st2" d="M2718.93-426.64c.65.33.65.67,0,1v-1Z"/>
    </g>
  </g>
</svg>